{
  "accessors": [
    {
      "bufferView": 2,
      "componentType": 5126,
      "count": 152,
      "max": [
        0.3421924412250519,
        0.3421924412250519,
        0.01306323055177927
      ],
      "min": [
        -0.3421924412250519,
        -0.3421924412250519,
        -0.6014324426651001
      ],
      "type": "VEC3"
    },
    {
      "bufferView": 2,
      "byteOffset": 1824,
      "componentType": 5126,
      "count": 152,
      "max": [
        1.0,
        1.0,
        1.0
      ],
      "min": [
        -1.0,
        -1.0,
        -1.0
      ],
      "type": "VEC3"
    },
    {
      "bufferView": 3,
      "componentType": 5126,
      "count": 152,
      "max": [
        1.0,
        1.0,
        0.9056739807128906,
        1.0
      ],
      "min": [
        -1.0,
        -1.0,
        -1.0,
        1.0
      ],
      "type": "VEC4"
    },
    {
      "bufferView": 1,
      "componentType": 5126,
      "count": 152,
      "max": [
        0.9264164566993713,
        0.998046875
      ],
      "min": [
        0.03491821885108948,
        0.11070649325847626
      ],
      "type": "VEC2"
    },
    {
      "bufferView": 0,
      "componentType": 5125,
      "count": 330,
      "type": "SCALAR"
    },
    {
      "bufferView": 2,
      "byteOffset": 3648,
      "componentType": 5126,
      "count": 1394,
      "max": [
        0.21088054776191711,
        0.2155478298664093,
        0.3497605621814728
      ],
      "min": [
        -0.21088054776191711,
        -0.22003531455993652,
        -1.522551656307769e-06
      ],
      "type": "VEC3"
    },
    {
      "bufferView": 2,
      "byteOffset": 20376,
      "componentType": 5126,
      "count": 1394,
      "max": [
        0.9989390969276428,
        0.9999284744262695,
        0.9992862939834595
      ],
      "min": [
        -0.9989390969276428,
        -0.9998906850814819,
        -0.9994621276855469
      ],
      "type": "VEC3"
    },
    {
      "bufferView": 3,
      "byteOffset": 2432,
      "componentType": 5126,
      "count": 1394,
      "max": [
        0.9988240003585815,
        0.9993457794189453,
        0.9998189806938171,
        1.0
      ],
      "min": [
        -0.9984971880912781,
        -0.9994044899940491,
        -0.9998427629470825,
        1.0
      ],
      "type": "VEC4"
    },
    {
      "bufferView": 1,
      "byteOffset": 1216,
      "componentType": 5126,
      "count": 1394,
      "max": [
        0.7662476897239685,
        0.6790128946304321
      ],
      "min": [
        0.306368887424469,
        0.20606333017349243
      ],
      "type": "VEC2"
    },
    {
      "bufferView": 0,
      "byteOffset": 1320,
      "componentType": 5125,
      "count": 7680,
      "type": "SCALAR"
    },
    {
      "bufferView": 2,
      "byteOffset": 37104,
      "componentType": 5126,
      "count": 723,
      "max": [
        0.17944881319999695,
        0.19094805419445038,
        0.6405906677246094
      ],
      "min": [
        -0.17944881319999695,
        -0.22641782462596893,
        0.332750141620636
      ],
      "type": "VEC3"
    },
    {
      "bufferView": 2,
      "byteOffset": 45780,
      "componentType": 5126,
      "count": 723,
      "max": [
        0.9988222718238831,
        0.9997639656066895,
        0.9995622038841248
      ],
      "min": [
        -0.9988223314285278,
        -0.9921771287918091,
        -0.9994574189186096
      ],
      "type": "VEC3"
    },
    {
      "bufferView": 3,
      "byteOffset": 24736,
      "componentType": 5126,
      "count": 723,
      "max": [
        0.9998154640197754,
        0.9982188940048218,
        0.9997639656066895,
        1.0
      ],
      "min": [
        -0.9998154640197754,
        -0.9995622038841248,
        -0.9967185854911804,
        -1.0
      ],
      "type": "VEC4"
    },
    {
      "bufferView": 1,
      "byteOffset": 12368,
      "componentType": 5126,
      "count": 723,
      "max": [
        0.26468512415885925,
        0.48065438866615295
      ],
      "min": [
        0.001953275641426444,
        0.09345591068267822
      ],
      "type": "VEC2"
    },
    {
      "bufferView": 0,
      "byteOffset": 32040,
      "componentType": 5125,
      "count": 3882,
      "type": "SCALAR"
    },
    {
      "bufferView": 2,
      "byteOffset": 54456,
      "componentType": 5126,
      "count": 1394,
      "max": [
        0.21088054776191711,
        0.2155478298664093,
        0.3497605621814728
      ],
      "min": [
        -0.21088054776191711,
        -0.22003531455993652,
        -1.522551656307769e-06
      ],
      "type": "VEC3"
    },
    {
      "bufferView": 2,
      "byteOffset": 71184,
      "componentType": 5126,
      "count": 1394,
      "max": [
        0.9989390969276428,
        0.9999284744262695,
        0.9992862939834595
      ],
      "min": [
        -0.9989390969276428,
        -0.9998906850814819,
        -0.9994621276855469
      ],
      "type": "VEC3"
    },
    {
      "bufferView": 3,
      "byteOffset": 36304,
      "componentType": 5126,
      "count": 1394,
      "max": [
        0.9988240003585815,
        0.9993457794189453,
        0.9998189806938171,
        1.0
      ],
      "min": [
        -0.9984971880912781,
        -0.9994044899940491,
        -0.9998427629470825,
        1.0
      ],
      "type": "VEC4"
    },
    {
      "bufferView": 1,
      "byteOffset": 18152,
      "componentType": 5126,
      "count": 1394,
      "max": [
        0.7662476897239685,
        0.6790128946304321
      ],
      "min": [
        0.306368887424469,
        0.20606333017349243
      ],
      "type": "VEC2"
    },
    {
      "bufferView": 0,
      "byteOffset": 47568,
      "componentType": 5125,
      "count": 7680,
      "type": "SCALAR"
    },
    {
      "bufferView": 2,
      "byteOffset": 87912,
      "componentType": 5126,
      "count": 723,
      "max": [
        0.17944881319999695,
        0.19094805419445038,
        0.6405906677246094
      ],
      "min": [
        -0.17944881319999695,
        -0.22641782462596893,
        0.332750141620636
      ],
      "type": "VEC3"
    },
    {
      "bufferView": 2,
      "byteOffset": 96588,
      "componentType": 5126,
      "count": 723,
      "max": [
        0.9988222718238831,
        0.9997639656066895,
        0.9995622038841248
      ],
      "min": [
        -0.9988223314285278,
        -0.9921771287918091,
        -0.9994574189186096
      ],
      "type": "VEC3"
    },
    {
      "bufferView": 3,
      "byteOffset": 58608,
      "componentType": 5126,
      "count": 723,
      "max": [
        0.9998154640197754,
        0.9982188940048218,
        0.9997639656066895,
        1.0
      ],
      "min": [
        -0.9998154640197754,
        -0.9995622038841248,
        -0.9967185854911804,
        -1.0
      ],
      "type": "VEC4"
    },
    {
      "bufferView": 1,
      "byteOffset": 29304,
      "componentType": 5126,
      "count": 723,
      "max": [
        0.26468512415885925,
        0.48065438866615295
      ],
      "min": [
        0.001953275641426444,
        0.09345591068267822
      ],
      "type": "VEC2"
    },
    {
      "bufferView": 0,
      "byteOffset": 78288,
      "componentType": 5125,
      "count": 3882,
      "type": "SCALAR"
    },
    {
      "bufferView": 2,
      "byteOffset": 105264,
      "componentType": 5126,
      "count": 1394,
      "max": [
        0.21088054776191711,
        0.2155478298664093,
        0.3497605621814728
      ],
      "min": [
        -0.21088054776191711,
        -0.22003531455993652,
        -1.522551656307769e-06
      ],
      "type": "VEC3"
    },
    {
      "bufferView": 2,
      "byteOffset": 121992,
      "componentType": 5126,
      "count": 1394,
      "max": [
        0.9989390969276428,
        0.9999284744262695,
        0.9992862939834595
      ],
      "min": [
        -0.9989390969276428,
        -0.9998906850814819,
        -0.9994621276855469
      ],
      "type": "VEC3"
    },
    {
      "bufferView": 3,
      "byteOffset": 70176,
      "componentType": 5126,
      "count": 1394,
      "max": [
        0.9988240003585815,
        0.9993457794189453,
        0.9998189806938171,
        1.0
      ],
      "min": [
        -0.9984971880912781,
        -0.9994044899940491,
        -0.9998427629470825,
        1.0
      ],
      "type": "VEC4"
    },
    {
      "bufferView": 1,
      "byteOffset": 35088,
      "componentType": 5126,
      "count": 1394,
      "max": [
        0.7662476897239685,
        0.6790128946304321
      ],
      "min": [
        0.306368887424469,
        0.20606333017349243
      ],
      "type": "VEC2"
    },
    {
      "bufferView": 0,
      "byteOffset": 93816,
      "componentType": 5125,
      "count": 7680,
      "type": "SCALAR"
    },
    {
      "bufferView": 2,
      "byteOffset": 138720,
      "componentType": 5126,
      "count": 723,
      "max": [
        0.17944881319999695,
        0.19094805419445038,
        0.6405906677246094
      ],
      "min": [
        -0.17944881319999695,
        -0.22641782462596893,
        0.332750141620636
      ],
      "type": "VEC3"
    },
    {
      "bufferView": 2,
      "byteOffset": 147396,
      "componentType": 5126,
      "count": 723,
      "max": [
        0.9988222718238831,
        0.9997639656066895,
        0.9995622038841248
      ],
      "min": [
        -0.9988223314285278,
        -0.9921771287918091,
        -0.9994574189186096
      ],
      "type": "VEC3"
    },
    {
      "bufferView": 3,
      "byteOffset": 92480,
      "componentType": 5126,
      "count": 723,
      "max": [
        0.9998154640197754,
        0.9982188940048218,
        0.9997639656066895,
        1.0
      ],
      "min": [
        -0.9998154640197754,
        -0.9995622038841248,
        -0.9967185854911804,
        -1.0
      ],
      "type": "VEC4"
    },
    {
      "bufferView": 1,
      "byteOffset": 46240,
      "componentType": 5126,
      "count": 723,
      "max": [
        0.26468512415885925,
        0.48065438866615295
      ],
      "min": [
        0.001953275641426444,
        0.09345591068267822
      ],
      "type": "VEC2"
    },
    {
      "bufferView": 0,
      "byteOffset": 124536,
      "componentType": 5125,
      "count": 3882,
      "type": "SCALAR"
    },
    {
      "bufferView": 2,
      "byteOffset": 156072,
      "componentType": 5126,
      "count": 152,
      "max": [
        0.3421924412250519,
        0.3421924412250519,
        0.01306323055177927
      ],
      "min": [
        -0.3421924412250519,
        -0.3421924412250519,
        -0.6014324426651001
      ],
      "type": "VEC3"
    },
    {
      "bufferView": 2,
      "byteOffset": 157896,
      "componentType": 5126,
      "count": 152,
      "max": [
        1.0,
        1.0,
        1.0
      ],
      "min": [
        -1.0,
        -1.0,
        -1.0
      ],
      "type": "VEC3"
    },
    {
      "bufferView": 3,
      "byteOffset": 104048,
      "componentType": 5126,
      "count": 152,
      "max": [
        1.0,
        1.0,
        0.9056739807128906,
        1.0
      ],
      "min": [
        -1.0,
        -1.0,
        -1.0,
        1.0
      ],
      "type": "VEC4"
    },
    {
      "bufferView": 1,
      "byteOffset": 52024,
      "componentType": 5126,
      "count": 152,
      "max": [
        0.9264164566993713,
        0.998046875
      ],
      "min": [
        0.03491821885108948,
        0.11070649325847626
      ],
      "type": "VEC2"
    },
    {
      "bufferView": 0,
      "byteOffset": 140064,
      "componentType": 5125,
      "count": 330,
      "type": "SCALAR"
    },
    {
      "bufferView": 2,
      "byteOffset": 159720,
      "componentType": 5126,
      "count": 1394,
      "max": [
        0.21088054776191711,
        0.2155478298664093,
        0.3497605621814728
      ],
      "min": [
        -0.21088054776191711,
        -0.22003531455993652,
        -1.522551656307769e-06
      ],
      "type": "VEC3"
    },
    {
      "bufferView": 2,
      "byteOffset": 176448,
      "componentType": 5126,
      "count": 1394,
      "max": [
        0.9989390969276428,
        0.9999284744262695,
        0.9992862939834595
      ],
      "min": [
        -0.9989390969276428,
        -0.9998906850814819,
        -0.9994621276855469
      ],
      "type": "VEC3"
    },
    {
      "bufferView": 3,
      "byteOffset": 106480,
      "componentType": 5126,
      "count": 1394,
      "max": [
        0.9988240003585815,
        0.9993457794189453,
        0.9998189806938171,
        1.0
      ],
      "min": [
        -0.9984971880912781,
        -0.9994044899940491,
        -0.9998427629470825,
        1.0
      ],
      "type": "VEC4"
    },
    {
      "bufferView": 1,
      "byteOffset": 53240,
      "componentType": 5126,
      "count": 1394,
      "max": [
        0.7662476897239685,
        0.6790128946304321
      ],
      "min": [
        0.306368887424469,
        0.20606333017349243
      ],
      "type": "VEC2"
    },
    {
      "bufferView": 0,
      "byteOffset": 141384,
      "componentType": 5125,
      "count": 7680,
      "type": "SCALAR"
    },
    {
      "bufferView": 2,
      "byteOffset": 193176,
      "componentType": 5126,
      "count": 723,
      "max": [
        0.17944881319999695,
        0.19094805419445038,
        0.6405906677246094
      ],
      "min": [
        -0.17944881319999695,
        -0.22641782462596893,
        0.332750141620636
      ],
      "type": "VEC3"
    },
    {
      "bufferView": 2,
      "byteOffset": 201852,
      "componentType": 5126,
      "count": 723,
      "max": [
        0.9988222718238831,
        0.9997639656066895,
        0.9995622038841248
      ],
      "min": [
        -0.9988223314285278,
        -0.9921771287918091,
        -0.9994574189186096
      ],
      "type": "VEC3"
    },
    {
      "bufferView": 3,
      "byteOffset": 128784,
      "componentType": 5126,
      "count": 723,
      "max": [
        0.9998154640197754,
        0.9982188940048218,
        0.9997639656066895,
        1.0
      ],
      "min": [
        -0.9998154640197754,
        -0.9995622038841248,
        -0.9967185854911804,
        -1.0
      ],
      "type": "VEC4"
    },
    {
      "bufferView": 1,
      "byteOffset": 64392,
      "componentType": 5126,
      "count": 723,
      "max": [
        0.26468512415885925,
        0.48065438866615295
      ],
      "min": [
        0.001953275641426444,
        0.09345591068267822
      ],
      "type": "VEC2"
    },
    {
      "bufferView": 0,
      "byteOffset": 172104,
      "componentType": 5125,
      "count": 3882,
      "type": "SCALAR"
    },
    {
      "bufferView": 2,
      "byteOffset": 210528,
      "componentType": 5126,
      "count": 1394,
      "max": [
        0.21088054776191711,
        0.2155478298664093,
        0.3497605621814728
      ],
      "min": [
        -0.21088054776191711,
        -0.22003531455993652,
        -1.522551656307769e-06
      ],
      "type": "VEC3"
    },
    {
      "bufferView": 2,
      "byteOffset": 227256,
      "componentType": 5126,
      "count": 1394,
      "max": [
        0.9989390969276428,
        0.9999284744262695,
        0.9992862939834595
      ],
      "min": [
        -0.9989390969276428,
        -0.9998906850814819,
        -0.9994621276855469
      ],
      "type": "VEC3"
    },
    {
      "bufferView": 3,
      "byteOffset": 140352,
      "componentType": 5126,
      "count": 1394,
      "max": [
        0.9988240003585815,
        0.9993457794189453,
        0.9998189806938171,
        1.0
      ],
      "min": [
        -0.9984971880912781,
        -0.9994044899940491,
        -0.9998427629470825,
        1.0
      ],
      "type": "VEC4"
    },
    {
      "bufferView": 1,
      "byteOffset": 70176,
      "componentType": 5126,
      "count": 1394,
      "max": [
        0.7662476897239685,
        0.6790128946304321
      ],
      "min": [
        0.306368887424469,
        0.20606333017349243
      ],
      "type": "VEC2"
    },
    {
      "bufferView": 0,
      "byteOffset": 187632,
      "componentType": 5125,
      "count": 7680,
      "type": "SCALAR"
    },
    {
      "bufferView": 2,
      "byteOffset": 243984,
      "componentType": 5126,
      "count": 723,
      "max": [
        0.17944881319999695,
        0.19094805419445038,
        0.6405906677246094
      ],
      "min": [
        -0.17944881319999695,
        -0.22641782462596893,
        0.332750141620636
      ],
      "type": "VEC3"
    },
    {
      "bufferView": 2,
      "byteOffset": 252660,
      "componentType": 5126,
      "count": 723,
      "max": [
        0.9988222718238831,
        0.9997639656066895,
        0.9995622038841248
      ],
      "min": [
        -0.9988223314285278,
        -0.9921771287918091,
        -0.9994574189186096
      ],
      "type": "VEC3"
    },
    {
      "bufferView": 3,
      "byteOffset": 162656,
      "componentType": 5126,
      "count": 723,
      "max": [
        0.9998154640197754,
        0.9982188940048218,
        0.9997639656066895,
        1.0
      ],
      "min": [
        -0.9998154640197754,
        -0.9995622038841248,
        -0.9967185854911804,
        -1.0
      ],
      "type": "VEC4"
    },
    {
      "bufferView": 1,
      "byteOffset": 81328,
      "componentType": 5126,
      "count": 723,
      "max": [
        0.26468512415885925,
        0.48065438866615295
      ],
      "min": [
        0.001953275641426444,
        0.09345591068267822
      ],
      "type": "VEC2"
    },
    {
      "bufferView": 0,
      "byteOffset": 218352,
      "componentType": 5125,
      "count": 3882,
      "type": "SCALAR"
    },
    {
      "bufferView": 2,
      "byteOffset": 261336,
      "componentType": 5126,
      "count": 1394,
      "max": [
        0.21088054776191711,
        0.2155478298664093,
        0.3497605621814728
      ],
      "min": [
        -0.21088054776191711,
        -0.22003531455993652,
        -1.522551656307769e-06
      ],
      "type": "VEC3"
    },
    {
      "bufferView": 2,
      "byteOffset": 278064,
      "componentType": 5126,
      "count": 1394,
      "max": [
        0.9989390969276428,
        0.9999284744262695,
        0.9992862939834595
      ],
      "min": [
        -0.9989390969276428,
        -0.9998906850814819,
        -0.9994621276855469
      ],
      "type": "VEC3"
    },
    {
      "bufferView": 3,
      "byteOffset": 174224,
      "componentType": 5126,
      "count": 1394,
      "max": [
        0.9988240003585815,
        0.9993457794189453,
        0.9998189806938171,
        1.0
      ],
      "min": [
        -0.9984971880912781,
        -0.9994044899940491,
        -0.9998427629470825,
        1.0
      ],
      "type": "VEC4"
    },
    {
      "bufferView": 1,
      "byteOffset": 87112,
      "componentType": 5126,
      "count": 1394,
      "max": [
        0.7662476897239685,
        0.6790128946304321
      ],
      "min": [
        0.306368887424469,
        0.20606333017349243
      ],
      "type": "VEC2"
    },
    {
      "bufferView": 0,
      "byteOffset": 233880,
      "componentType": 5125,
      "count": 7680,
      "type": "SCALAR"
    },
    {
      "bufferView": 2,
      "byteOffset": 294792,
      "componentType": 5126,
      "count": 723,
      "max": [
        0.17944881319999695,
        0.19094805419445038,
        0.6405906677246094
      ],
      "min": [
        -0.17944881319999695,
        -0.22641782462596893,
        0.332750141620636
      ],
      "type": "VEC3"
    },
    {
      "bufferView": 2,
      "byteOffset": 303468,
      "componentType": 5126,
      "count": 723,
      "max": [
        0.9988222718238831,
        0.9997639656066895,
        0.9995622038841248
      ],
      "min": [
        -0.9988223314285278,
        -0.9921771287918091,
        -0.9994574189186096
      ],
      "type": "VEC3"
    },
    {
      "bufferView": 3,
      "byteOffset": 196528,
      "componentType": 5126,
      "count": 723,
      "max": [
        0.9998154640197754,
        0.9982188940048218,
        0.9997639656066895,
        1.0
      ],
      "min": [
        -0.9998154640197754,
        -0.9995622038841248,
        -0.9967185854911804,
        -1.0
      ],
      "type": "VEC4"
    },
    {
      "bufferView": 1,
      "byteOffset": 98264,
      "componentType": 5126,
      "count": 723,
      "max": [
        0.26468512415885925,
        0.48065438866615295
      ],
      "min": [
        0.001953275641426444,
        0.09345591068267822
      ],
      "type": "VEC2"
    },
    {
      "bufferView": 0,
      "byteOffset": 264600,
      "componentType": 5125,
      "count": 3882,
      "type": "SCALAR"
    },
    {
      "bufferView": 2,
      "byteOffset": 312144,
      "componentType": 5126,
      "count": 152,
      "max": [
        0.3421924412250519,
        0.3421924412250519,
        0.01306323055177927
      ],
      "min": [
        -0.3421924412250519,
        -0.3421924412250519,
        -0.6014324426651001
      ],
      "type": "VEC3"
    },
    {
      "bufferView": 2,
      "byteOffset": 313968,
      "componentType": 5126,
      "count": 152,
      "max": [
        1.0,
        1.0,
        1.0
      ],
      "min": [
        -1.0,
        -1.0,
        -1.0
      ],
      "type": "VEC3"
    },
    {
      "bufferView": 3,
      "byteOffset": 208096,
      "componentType": 5126,
      "count": 152,
      "max": [
        1.0,
        1.0,
        0.9056739807128906,
        1.0
      ],
      "min": [
        -1.0,
        -1.0,
        -1.0,
        1.0
      ],
      "type": "VEC4"
    },
    {
      "bufferView": 1,
      "byteOffset": 104048,
      "componentType": 5126,
      "count": 152,
      "max": [
        0.9264164566993713,
        0.998046875
      ],
      "min": [
        0.03491821885108948,
        0.11070649325847626
      ],
      "type": "VEC2"
    },
    {
      "bufferView": 0,
      "byteOffset": 280128,
      "componentType": 5125,
      "count": 330,
      "type": "SCALAR"
    },
    {
      "bufferView": 2,
      "byteOffset": 315792,
      "componentType": 5126,
      "count": 1394,
      "max": [
        0.21088054776191711,
        0.2155478298664093,
        0.3497605621814728
      ],
      "min": [
        -0.21088054776191711,
        -0.22003531455993652,
        -1.522551656307769e-06
      ],
      "type": "VEC3"
    },
    {
      "bufferView": 2,
      "byteOffset": 332520,
      "componentType": 5126,
      "count": 1394,
      "max": [
        0.9989390969276428,
        0.9999284744262695,
        0.9992862939834595
      ],
      "min": [
        -0.9989390969276428,
        -0.9998906850814819,
        -0.9994621276855469
      ],
      "type": "VEC3"
    },
    {
      "bufferView": 3,
      "byteOffset": 210528,
      "componentType": 5126,
      "count": 1394,
      "max": [
        0.9988240003585815,
        0.9993457794189453,
        0.9998189806938171,
        1.0
      ],
      "min": [
        -0.9984971880912781,
        -0.9994044899940491,
        -0.9998427629470825,
        1.0
      ],
      "type": "VEC4"
    },
    {
      "bufferView": 1,
      "byteOffset": 105264,
      "componentType": 5126,
      "count": 1394,
      "max": [
        0.7662476897239685,
        0.6790128946304321
      ],
      "min": [
        0.306368887424469,
        0.20606333017349243
      ],
      "type": "VEC2"
    },
    {
      "bufferView": 0,
      "byteOffset": 281448,
      "componentType": 5125,
      "count": 7680,
      "type": "SCALAR"
    },
    {
      "bufferView": 2,
      "byteOffset": 349248,
      "componentType": 5126,
      "count": 723,
      "max": [
        0.17944881319999695,
        0.19094805419445038,
        0.6405906677246094
      ],
      "min": [
        -0.17944881319999695,
        -0.22641782462596893,
        0.332750141620636
      ],
      "type": "VEC3"
    },
    {
      "bufferView": 2,
      "byteOffset": 357924,
      "componentType": 5126,
      "count": 723,
      "max": [
        0.9988222718238831,
        0.9997639656066895,
        0.9995622038841248
      ],
      "min": [
        -0.9988223314285278,
        -0.9921771287918091,
        -0.9994574189186096
      ],
      "type": "VEC3"
    },
    {
      "bufferView": 3,
      "byteOffset": 232832,
      "componentType": 5126,
      "count": 723,
      "max": [
        0.9998154640197754,
        0.9982188940048218,
        0.9997639656066895,
        1.0
      ],
      "min": [
        -0.9998154640197754,
        -0.9995622038841248,
        -0.9967185854911804,
        -1.0
      ],
      "type": "VEC4"
    },
    {
      "bufferView": 1,
      "byteOffset": 116416,
      "componentType": 5126,
      "count": 723,
      "max": [
        0.26468512415885925,
        0.48065438866615295
      ],
      "min": [
        0.001953275641426444,
        0.09345591068267822
      ],
      "type": "VEC2"
    },
    {
      "bufferView": 0,
      "byteOffset": 312168,
      "componentType": 5125,
      "count": 3882,
      "type": "SCALAR"
    },
    {
      "bufferView": 2,
      "byteOffset": 366600,
      "componentType": 5126,
      "count": 12,
      "max": [
        0.7043502926826477,
        -0.12019090354442596,
        0.16282565891742706
      ],
      "min": [
        -0.7043502926826477,
        -0.14468298852443695,
        0.15055841207504272
      ],
      "type": "VEC3"
    },
    {
      "bufferView": 2,
      "byteOffset": 366744,
      "componentType": 5126,
      "count": 12,
      "max": [
        0.0,
        1.0,
        1.0
      ],
      "min": [
        0.0,
        -1.0,
        0.0
      ],
      "type": "VEC3"
    },
    {
      "bufferView": 3,
      "byteOffset": 244400,
      "componentType": 5126,
      "count": 12,
      "max": [
        1.0,
        6.304519956756849e-06,
        3.152272029183223e-06,
        1.0
      ],
      "min": [
        1.0,
        0.0,
        -6.2999833971844055e-06,
        1.0
      ],
      "type": "VEC4"
    },
    {
      "bufferView": 1,
      "byteOffset": 122200,
      "componentType": 5126,
      "count": 12,
      "max": [
        0.19104884564876556,
        0.9943280220031738
      ],
      "min": [
        0.001953125,
        0.9877452254295349
      ],
      "type": "VEC2"
    },
    {
      "bufferView": 0,
      "byteOffset": 327696,
      "componentType": 5125,
      "count": 18,
      "type": "SCALAR"
    },
    {
      "bufferView": 2,
      "byteOffset": 366888,
      "componentType": 5126,
      "count": 16,
      "max": [
        0.7043502926826477,
        0.46660783886909485,
        0.30021366477012634
      ],
      "min": [
        -0.7043502926826477,
        -0.14170308411121368,
        0.0
      ],
      "type": "VEC3"
    },
    {
      "bufferView": 2,
      "byteOffset": 367080,
      "componentType": 5126,
      "count": 16,
      "max": [
        0.0,
        0.0,
        1.0
      ],
      "min": [
        0.0,
        -1.0,
        0.0
      ],
      "type": "VEC3"
    },
    {
      "bufferView": 3,
      "byteOffset": 244592,
      "componentType": 5126,
      "count": 16,
      "max": [
        1.0,
        7.433168320858385e-07,
        7.437512294927728e-07,
        1.0
      ],
      "min": [
        1.0,
        0.0,
        -1.5760376470552728e-07,
        1.0
      ],
      "type": "VEC4"
    },
    {
      "bufferView": 1,
      "byteOffset": 122296,
      "componentType": 5126,
      "count": 16,
      "max": [
        0.8195698857307434,
        0.5794255137443542
      ],
      "min": [
        0.6304739713668823,
        0.4574701488018036
      ],
      "type": "VEC2"
    },
    {
      "bufferView": 0,
      "byteOffset": 327768,
      "componentType": 5125,
      "count": 24,
      "type": "SCALAR"
    },
    {
      "bufferView": 2,
      "byteOffset": 367272,
      "componentType": 5126,
      "count": 8,
      "max": [
        3.94881272315979,
        2.7480309009552,
        0.0
      ],
      "min": [
        -3.94881272315979,
        -1.3092681169509888,
        0.0
      ],
      "type": "VEC3"
    },
    {
      "bufferView": 2,
      "byteOffset": 367368,
      "componentType": 5126,
      "count": 8,
      "max": [
        0.0,
        0.0,
        1.0
      ],
      "min": [
        0.0,
        0.0,
        1.0
      ],
      "type": "VEC3"
    },
    {
      "bufferView": 3,
      "byteOffset": 244848,
      "componentType": 5126,
      "count": 8,
      "max": [
        0.7071067094802856,
        0.7071069478988647,
        0.0,
        1.0
      ],
      "min": [
        0.7071066498756409,
        0.7071068286895752,
        0.0,
        1.0
      ],
      "type": "VEC4"
    },
    {
      "bufferView": 1,
      "byteOffset": 122424,
      "componentType": 5126,
      "count": 8,
      "max": [
        0.7515798211097717,
        0.7515800595283508
      ],
      "min": [
        0.001953125,
        0.001953125
      ],
      "type": "VEC2"
    },
    {
      "bufferView": 0,
      "byteOffset": 327864,
      "componentType": 5125,
      "count": 18,
      "type": "SCALAR"
    },
    {
      "bufferView": 2,
      "byteOffset": 367464,
      "componentType": 5126,
      "count": 1701,
      "max": [
        2.8642356395721436,
        1.3336279392242432,
        1.9324936866760254
      ],
      "min": [
        -2.8642356395721436,
        -0.9292376041412354,
        -0.7146719098091125
      ],
      "type": "VEC3"
    },
    {
      "bufferView": 2,
      "byteOffset": 387876,
      "componentType": 5126,
      "count": 1701,
      "max": [
        1.0,
        0.9340571165084839,
        1.0
      ],
      "min": [
        -1.0,
        -1.0,
        -1.0
      ],
      "type": "VEC3"
    },
    {
      "bufferView": 3,
      "byteOffset": 244976,
      "componentType": 5126,
      "count": 1701,
      "max": [
        1.0,
        1.0,
        1.0,
        1.0
      ],
      "min": [
        -1.0,
        -1.0,
        -1.0,
        -1.0
      ],
      "type": "VEC4"
    },
    {
      "bufferView": 1,
      "byteOffset": 122488,
      "componentType": 5126,
      "count": 1701,
      "max": [
        0.991754949092865,
        0.9854606986045837
      ],
      "min": [
        0.001953125,
        0.0019531319849193096
      ],
      "type": "VEC2"
    },
    {
      "bufferView": 0,
      "byteOffset": 327936,
      "componentType": 5125,
      "count": 2424,
      "type": "SCALAR"
    },
    {
      "bufferView": 2,
      "byteOffset": 408288,
      "componentType": 5126,
      "count": 116,
      "max": [
        0.4587461054325104,
        -0.10581417381763458,
        1.1925158500671387
      ],
      "min": [
        -0.4587461054325104,
        -0.12881417572498322,
        -0.3945450186729431
      ],
      "type": "VEC3"
    },
    {
      "bufferView": 2,
      "byteOffset": 409680,
      "componentType": 5126,
      "count": 116,
      "max": [
        1.0,
        0.0,
        1.0
      ],
      "min": [
        -1.0,
        -1.0,
        -1.0
      ],
      "type": "VEC3"
    },
    {
      "bufferView": 3,
      "byteOffset": 272192,
      "componentType": 5126,
      "count": 116,
      "max": [
        1.0,
        3.1259695353058614e-13,
        0.0002326613466721028,
        1.0
      ],
      "min": [
        -3.654376632766798e-05,
        -1.0,
        -3.656812259578146e-05,
        1.0
      ],
      "type": "VEC4"
    },
    {
      "bufferView": 1,
      "byteOffset": 136096,
      "componentType": 5126,
      "count": 116,
      "max": [
        0.9740175008773804,
        0.9832999110221863
      ],
      "min": [
        0.001953125,
        0.0019531319849193096
      ],
      "type": "VEC2"
    },
    {
      "bufferView": 0,
      "byteOffset": 337632,
      "componentType": 5125,
      "count": 186,
      "type": "SCALAR"
    },
    {
      "bufferView": 2,
      "byteOffset": 411072,
      "componentType": 5126,
      "count": 582,
      "max": [
        1.1388882398605347,
        1.138860821723938,
        1.0
      ],
      "min": [
        -1.1388847827911377,
        -1.138912558555603,
        -1.3468455076217651
      ],
      "type": "VEC3"
    },
    {
      "bufferView": 2,
      "byteOffset": 418056,
      "componentType": 5126,
      "count": 582,
      "max": [
        1.0,
        1.0,
        0.7730104923248291
      ],
      "min": [
        -1.0,
        -1.0,
        -1.0
      ],
      "type": "VEC3"
    },
    {
      "bufferView": 3,
      "byteOffset": 274048,
      "componentType": 5126,
      "count": 582,
      "max": [
        0.9999990463256836,
        0.9999989867210388,
        0.9934554696083069,
        1.0
      ],
      "min": [
        -0.9999890327453613,
        -0.9999990463256836,
        -0.9929589033126831,
        -1.0
      ],
      "type": "VEC4"
    },
    {
      "bufferView": 1,
      "byteOffset": 137024,
      "componentType": 5126,
      "count": 582,
      "max": [
        0.2986920177936554,
        0.9959260821342468
      ],
      "min": [
        0.10492675751447678,
        0.8761063814163208
      ],
      "type": "VEC2"
    },
    {
      "bufferView": 0,
      "byteOffset": 338376,
      "componentType": 5125,
      "count": 2976,
      "type": "SCALAR"
    },
    {
      "bufferView": 2,
      "byteOffset": 425040,
      "componentType": 5126,
      "count": 12,
      "max": [
        0.7043502926826477,
        -0.12019090354442596,
        0.16282565891742706
      ],
      "min": [
        -0.7043502926826477,
        -0.14468298852443695,
        0.15055841207504272
      ],
      "type": "VEC3"
    },
    {
      "bufferView": 2,
      "byteOffset": 425184,
      "componentType": 5126,
      "count": 12,
      "max": [
        0.0,
        1.0,
        1.0
      ],
      "min": [
        0.0,
        -1.0,
        0.0
      ],
      "type": "VEC3"
    },
    {
      "bufferView": 3,
      "byteOffset": 283360,
      "componentType": 5126,
      "count": 12,
      "max": [
        1.0,
        6.304519956756849e-06,
        3.152272029183223e-06,
        1.0
      ],
      "min": [
        1.0,
        0.0,
        -6.2999833971844055e-06,
        1.0
      ],
      "type": "VEC4"
    },
    {
      "bufferView": 1,
      "byteOffset": 141680,
      "componentType": 5126,
      "count": 12,
      "max": [
        0.19104884564876556,
        0.9943280220031738
      ],
      "min": [
        0.001953125,
        0.9877452254295349
      ],
      "type": "VEC2"
    },
    {
      "bufferView": 0,
      "byteOffset": 350280,
      "componentType": 5125,
      "count": 18,
      "type": "SCALAR"
    },
    {
      "bufferView": 2,
      "byteOffset": 425328,
      "componentType": 5126,
      "count": 97,
      "max": [
        0.1817302107810974,
        0.010504912585020065,
        0.6804423332214355
      ],
      "min": [
        -0.1817302107810974,
        -0.010504912585020065,
        0.0
      ],
      "type": "VEC3"
    },
    {
      "bufferView": 2,
      "byteOffset": 426492,
      "componentType": 5126,
      "count": 97,
      "max": [
        1.0,
        1.0,
        1.0
      ],
      "min": [
        -1.0,
        -1.0,
        -1.0
      ],
      "type": "VEC3"
    },
    {
      "bufferView": 3,
      "byteOffset": 283552,
      "componentType": 5126,
      "count": 97,
      "max": [
        1.0,
        0.8473379611968994,
        0.6737285852432251,
        1.0
      ],
      "min": [
        -1.0,
        -1.0,
        -0.6737331748008728,
        1.0
      ],
      "type": "VEC4"
    },
    {
      "bufferView": 1,
      "byteOffset": 141776,
      "componentType": 5126,
      "count": 97,
      "max": [
        0.9632551670074463,
        0.9061823487281799
      ],
      "min": [
        0.2737187147140503,
        0.0019531319849193096
      ],
      "type": "VEC2"
    },
    {
      "bufferView": 0,
      "byteOffset": 350352,
      "componentType": 5125,
      "count": 144,
      "type": "SCALAR"
    },
    {
      "bufferView": 2,
      "byteOffset": 427656,
      "componentType": 5126,
      "count": 97,
      "max": [
        0.1817302107810974,
        0.010504912585020065,
        0.6804423332214355
      ],
      "min": [
        -0.1817302107810974,
        -0.010504912585020065,
        0.0
      ],
      "type": "VEC3"
    },
    {
      "bufferView": 2,
      "byteOffset": 428820,
      "componentType": 5126,
      "count": 97,
      "max": [
        1.0,
        1.0,
        1.0
      ],
      "min": [
        -1.0,
        -1.0,
        -1.0
      ],
      "type": "VEC3"
    },
    {
      "bufferView": 3,
      "byteOffset": 285104,
      "componentType": 5126,
      "count": 97,
      "max": [
        1.0,
        0.8473379611968994,
        0.6737285852432251,
        1.0
      ],
      "min": [
        -1.0,
        -1.0,
        -0.6737331748008728,
        1.0
      ],
      "type": "VEC4"
    },
    {
      "bufferView": 1,
      "byteOffset": 142552,
      "componentType": 5126,
      "count": 97,
      "max": [
        0.9632551670074463,
        0.9061823487281799
      ],
      "min": [
        0.2737187147140503,
        0.0019531319849193096
      ],
      "type": "VEC2"
    },
    {
      "bufferView": 0,
      "byteOffset": 350928,
      "componentType": 5125,
      "count": 144,
      "type": "SCALAR"
    },
    {
      "bufferView": 2,
      "byteOffset": 429984,
      "componentType": 5126,
      "count": 672,
      "max": [
        0.1062447726726532,
        0.033722419291734695,
        0.006000000052154064
      ],
      "min": [
        -0.10375391691923141,
        -0.03381821885704994,
        -0.006000000052154064
      ],
      "type": "VEC3"
    },
    {
      "bufferView": 2,
      "byteOffset": 438048,
      "componentType": 5126,
      "count": 672,
      "max": [
        1.0,
        1.0,
        1.0
      ],
      "min": [
        -1.0,
        -1.0,
        0.0
      ],
      "type": "VEC3"
    },
    {
      "bufferView": 3,
      "byteOffset": 286656,
      "componentType": 5126,
      "count": 672,
      "max": [
        1.0,
        0.9610430002212524,
        1.0,
        1.0
      ],
      "min": [
        -1.0,
        -0.9663674235343933,
        -5.233176239016757e-07,
        1.0
      ],
      "type": "VEC4"
    },
    {
      "bufferView": 1,
      "byteOffset": 143328,
      "componentType": 5126,
      "count": 672,
      "max": [
        0.41631007194519043,
        0.8698948621749878
      ],
      "min": [
        0.10021872073411942,
        0.0019531319849193096
      ],
      "type": "VEC2"
    },
    {
      "bufferView": 0,
      "byteOffset": 351504,
      "componentType": 5125,
      "count": 1215,
      "type": "SCALAR"
    },
    {
      "bufferView": 2,
      "byteOffset": 446112,
      "componentType": 5126,
      "count": 152,
      "max": [
        0.3421924412250519,
        0.3421924412250519,
        0.01306323055177927
      ],
      "min": [
        -0.3421924412250519,
        -0.3421924412250519,
        -0.6014324426651001
      ],
      "type": "VEC3"
    },
    {
      "bufferView": 2,
      "byteOffset": 447936,
      "componentType": 5126,
      "count": 152,
      "max": [
        1.0,
        1.0,
        1.0
      ],
      "min": [
        -1.0,
        -1.0,
        -1.0
      ],
      "type": "VEC3"
    },
    {
      "bufferView": 3,
      "byteOffset": 297408,
      "componentType": 5126,
      "count": 152,
      "max": [
        1.0,
        1.0,
        0.9056739807128906,
        1.0
      ],
      "min": [
        -1.0,
        -1.0,
        -1.0,
        1.0
      ],
      "type": "VEC4"
    },
    {
      "bufferView": 1,
      "byteOffset": 148704,
      "componentType": 5126,
      "count": 152,
      "max": [
        0.9264164566993713,
        0.998046875
      ],
      "min": [
        0.03491821885108948,
        0.11070649325847626
      ],
      "type": "VEC2"
    },
    {
      "bufferView": 0,
      "byteOffset": 356364,
      "componentType": 5125,
      "count": 330,
      "type": "SCALAR"
    },
    {
      "bufferView": 2,
      "byteOffset": 449760,
      "componentType": 5126,
      "count": 1394,
      "max": [
        0.21088054776191711,
        0.2155478298664093,
        0.3497605621814728
      ],
      "min": [
        -0.21088054776191711,
        -0.22003531455993652,
        -1.522551656307769e-06
      ],
      "type": "VEC3"
    },
    {
      "bufferView": 2,
      "byteOffset": 466488,
      "componentType": 5126,
      "count": 1394,
      "max": [
        0.9989390969276428,
        0.9999284744262695,
        0.9992862939834595
      ],
      "min": [
        -0.9989390969276428,
        -0.9998906850814819,
        -0.9994621276855469
      ],
      "type": "VEC3"
    },
    {
      "bufferView": 3,
      "byteOffset": 299840,
      "componentType": 5126,
      "count": 1394,
      "max": [
        0.9988240003585815,
        0.9993457794189453,
        0.9998189806938171,
        1.0
      ],
      "min": [
        -0.9984971880912781,
        -0.9994044899940491,
        -0.9998427629470825,
        1.0
      ],
      "type": "VEC4"
    },
    {
      "bufferView": 1,
      "byteOffset": 149920,
      "componentType": 5126,
      "count": 1394,
      "max": [
        0.7662476897239685,
        0.6790128946304321
      ],
      "min": [
        0.306368887424469,
        0.20606333017349243
      ],
      "type": "VEC2"
    },
    {
      "bufferView": 0,
      "byteOffset": 357684,
      "componentType": 5125,
      "count": 7680,
      "type": "SCALAR"
    },
    {
      "bufferView": 2,
      "byteOffset": 483216,
      "componentType": 5126,
      "count": 723,
      "max": [
        0.17944881319999695,
        0.19094805419445038,
        0.6405906677246094
      ],
      "min": [
        -0.17944881319999695,
        -0.22641782462596893,
        0.332750141620636
      ],
      "type": "VEC3"
    },
    {
      "bufferView": 2,
      "byteOffset": 491892,
      "componentType": 5126,
      "count": 723,
      "max": [
        0.9988222718238831,
        0.9997639656066895,
        0.9995622038841248
      ],
      "min": [
        -0.9988223314285278,
        -0.9921771287918091,
        -0.9994574189186096
      ],
      "type": "VEC3"
    },
    {
      "bufferView": 3,
      "byteOffset": 322144,
      "componentType": 5126,
      "count": 723,
      "max": [
        0.9998154640197754,
        0.9982188940048218,
        0.9997639656066895,
        1.0
      ],
      "min": [
        -0.9998154640197754,
        -0.9995622038841248,
        -0.9967185854911804,
        -1.0
      ],
      "type": "VEC4"
    },
    {
      "bufferView": 1,
      "byteOffset": 161072,
      "componentType": 5126,
      "count": 723,
      "max": [
        0.26468512415885925,
        0.48065438866615295
      ],
      "min": [
        0.001953275641426444,
        0.09345591068267822
      ],
      "type": "VEC2"
    },
    {
      "bufferView": 0,
      "byteOffset": 388404,
      "componentType": 5125,
      "count": 3882,
      "type": "SCALAR"
    }
  ],
  "asset": {
    "extras": {
      "author": "patrakeevasveta (https://sketchfab.com/patrakeevasveta)",
      "license": "CC-BY-4.0 (http://creativecommons.org/licenses/by/4.0/)",
      "source": "https://sketchfab.com/3d-models/corner-cafe-6dfed585fefe45099901b0a8d61b9879",
      "title": "Corner cafe"
    },
    "generator": "Sketchfab-15.72.0",
    "version": "2.0"
  },
  "bufferViews": [
    {
      "buffer": 0,
      "byteLength": 403932,
      "name": "floatBufferViews",
      "target": 34963
    },
    {
      "buffer": 0,
      "byteLength": 166856,
      "byteOffset": 403932,
      "byteStride": 8,
      "name": "floatBufferViews",
      "target": 34962
    },
    {
      "buffer": 0,
      "byteLength": 500568,
      "byteOffset": 570788,
      "byteStride": 12,
      "name": "floatBufferViews",
      "target": 34962
    },
    {
      "buffer": 0,
      "byteLength": 333712,
      "byteOffset": 1071356,
      "byteStride": 16,
      "name": "floatBufferViews",
      "target": 34962
    }
  ],
  "buffers": [
    {
      "byteLength": 1405068,
      "uri": "scene.bin"
    }
  ],
  "images": [
    {
      "uri": "textures/CornerCafe_baseColor.png"
    },
    {
      "uri": "textures/CornerCafe_metallicRoughness.png"
    },
    {
      "uri": "textures/CornerCafe_emissive.png"
    },
    {
      "uri": "textures/CornerCafe_normal.png"
    }
  ],
  "materials": [
    {
      "doubleSided": true,
      "emissiveFactor": [
        1.0,
        1.0,
        1.0
      ],
      "emissiveTexture": {
        "index": 2
      },
      "name": "CornerCafe",
      "normalTexture": {
        "index": 3
      },
      "pbrMetallicRoughness": {
        "baseColorTexture": {
          "index": 0
        },
        "metallicRoughnessTexture": {
          "index": 1
        }
      }
    }
  ],
  "meshes": [
    {
      "name": "table.001_CornerCafe_0",
      "primitives": [
        {
          "attributes": {
            "NORMAL": 1,
            "POSITION": 0,
            "TANGENT": 2,
            "TEXCOORD_0": 3
          },
          "indices": 4,
          "material": 0,
          "mode": 4
        }
      ]
    },
    {
      "name": "chair.001_CornerCafe_0",
      "primitives": [
        {
          "attributes": {
            "NORMAL": 6,
            "POSITION": 5,
            "TANGENT": 7,
            "TEXCOORD_0": 8
          },
          "indices": 9,
          "material": 0,
          "mode": 4
        }
      ]
    },
    {
      "name": "group_1.001_CornerCafe_0",
      "primitives": [
        {
          "attributes": {
            "NORMAL": 11,
            "POSITION": 10,
            "TANGENT": 12,
            "TEXCOORD_0": 13
          },
          "indices": 14,
          "material": 0,
          "mode": 4
        }
      ]
    },
    {
      "name": "chair.002_CornerCafe_0",
      "primitives": [
        {
          "attributes": {
            "NORMAL": 16,
            "POSITION": 15,
            "TANGENT": 17,
            "TEXCOORD_0": 18
          },
          "indices": 19,
          "material": 0,
          "mode": 4
        }
      ]
    },
    {
      "name": "group_1.002_CornerCafe_0",
      "primitives": [
        {
          "attributes": {
            "NORMAL": 21,
            "POSITION": 20,
            "TANGENT": 22,
            "TEXCOORD_0": 23
          },
          "indices": 24,
          "material": 0,
          "mode": 4
        }
      ]
    },
    {
      "name": "chair.003_CornerCafe_0",
      "primitives": [
        {
          "attributes": {
            "NORMAL": 26,
            "POSITION": 25,
            "TANGENT": 27,
            "TEXCOORD_0": 28
          },
          "indices": 29,
          "material": 0,
          "mode": 4
        }
      ]
    },
    {
      "name": "group_1.003_CornerCafe_0",
      "primitives": [
        {
          "attributes": {
            "NORMAL": 31,
            "POSITION": 30,
            "TANGENT": 32,
            "TEXCOORD_0": 33
          },
          "indices": 34,
          "material": 0,
          "mode": 4
        }
      ]
    },
    {
      "name": "table.002_CornerCafe_0",
      "primitives": [
        {
          "attributes": {
            "NORMAL": 36,
            "POSITION": 35,
            "TANGENT": 37,
            "TEXCOORD_0": 38
          },
          "indices": 39,
          "material": 0,
          "mode": 4
        }
      ]
    },
    {
      "name": "chair.004_CornerCafe_0",
      "primitives": [
        {
          "attributes": {
            "NORMAL": 41,
            "POSITION": 40,
            "TANGENT": 42,
            "TEXCOORD_0": 43
          },
          "indices": 44,
          "material": 0,
          "mode": 4
        }
      ]
    },
    {
      "name": "group_1.004_CornerCafe_0",
      "primitives": [
        {
          "attributes": {
            "NORMAL": 46,
            "POSITION": 45,
            "TANGENT": 47,
            "TEXCOORD_0": 48
          },
          "indices": 49,
          "material": 0,
          "mode": 4
        }
      ]
    },
    {
      "name": "chair.005_CornerCafe_0",
      "primitives": [
        {
          "attributes": {
            "NORMAL": 51,
            "POSITION": 50,
            "TANGENT": 52,
            "TEXCOORD_0": 53
          },
          "indices": 54,
          "material": 0,
          "mode": 4
        }
      ]
    },
    {
      "name": "group_1.005_CornerCafe_0",
      "primitives": [
        {
          "attributes": {
            "NORMAL": 56,
            "POSITION": 55,
            "TANGENT": 57,
            "TEXCOORD_0": 58
          },
          "indices": 59,
          "material": 0,
          "mode": 4
        }
      ]
    },
    {
      "name": "chair.006_CornerCafe_0",
      "primitives": [
        {
          "attributes": {
            "NORMAL": 61,
            "POSITION": 60,
            "TANGENT": 62,
            "TEXCOORD_0": 63
          },
          "indices": 64,
          "material": 0,
          "mode": 4
        }
      ]
    },
    {
      "name": "group_1.006_CornerCafe_0",
      "primitives": [
        {
          "attributes": {
            "NORMAL": 66,
            "POSITION": 65,
            "TANGENT": 67,
            "TEXCOORD_0": 68
          },
          "indices": 69,
          "material": 0,
          "mode": 4
        }
      ]
    },
    {
      "name": "table.003_CornerCafe_0",
      "primitives": [
        {
          "attributes": {
            "NORMAL": 71,
            "POSITION": 70,
            "TANGENT": 72,
            "TEXCOORD_0": 73
          },
          "indices": 74,
          "material": 0,
          "mode": 4
        }
      ]
    },
    {
      "name": "chair.007_CornerCafe_0",
      "primitives": [
        {
          "attributes": {
            "NORMAL": 76,
            "POSITION": 75,
            "TANGENT": 77,
            "TEXCOORD_0": 78
          },
          "indices": 79,
          "material": 0,
          "mode": 4
        }
      ]
    },
    {
      "name": "group_1.007_CornerCafe_0",
      "primitives": [
        {
          "attributes": {
            "NORMAL": 81,
            "POSITION": 80,
            "TANGENT": 82,
            "TEXCOORD_0": 83
          },
          "indices": 84,
          "material": 0,
          "mode": 4
        }
      ]
    },
    {
      "name": "Cube.004_CornerCafe_0",
      "primitives": [
        {
          "attributes": {
            "NORMAL": 86,
            "POSITION": 85,
            "TANGENT": 87,
            "TEXCOORD_0": 88
          },
          "indices": 89,
          "material": 0,
          "mode": 4
        }
      ]
    },
    {
      "name": "Cube_CornerCafe_0",
      "primitives": [
        {
          "attributes": {
            "NORMAL": 91,
            "POSITION": 90,
            "TANGENT": 92,
            "TEXCOORD_0": 93
          },
          "indices": 94,
          "material": 0,
          "mode": 4
        }
      ]
    },
    {
      "name": "Plane_CornerCafe_0",
      "primitives": [
        {
          "attributes": {
            "NORMAL": 96,
            "POSITION": 95,
            "TANGENT": 97,
            "TEXCOORD_0": 98
          },
          "indices": 99,
          "material": 0,
          "mode": 4
        }
      ]
    },
    {
      "name": "Cube.001_CornerCafe_0",
      "primitives": [
        {
          "attributes": {
            "NORMAL": 101,
            "POSITION": 100,
            "TANGENT": 102,
            "TEXCOORD_0": 103
          },
          "indices": 104,
          "material": 0,
          "mode": 4
        }
      ]
    },
    {
      "name": "Cube.003_CornerCafe_0",
      "primitives": [
        {
          "attributes": {
            "NORMAL": 106,
            "POSITION": 105,
            "TANGENT": 107,
            "TEXCOORD_0": 108
          },
          "indices": 109,
          "material": 0,
          "mode": 4
        }
      ]
    },
    {
      "name": "Cylinder_CornerCafe_0",
      "primitives": [
        {
          "attributes": {
            "NORMAL": 111,
            "POSITION": 110,
            "TANGENT": 112,
            "TEXCOORD_0": 113
          },
          "indices": 114,
          "material": 0,
          "mode": 4
        }
      ]
    },
    {
      "name": "Cube.005_CornerCafe_0",
      "primitives": [
        {
          "attributes": {
            "NORMAL": 116,
            "POSITION": 115,
            "TANGENT": 117,
            "TEXCOORD_0": 118
          },
          "indices": 119,
          "material": 0,
          "mode": 4
        }
      ]
    },
    {
      "name": "Cube.006_CornerCafe_0",
      "primitives": [
        {
          "attributes": {
            "NORMAL": 121,
            "POSITION": 120,
            "TANGENT": 122,
            "TEXCOORD_0": 123
          },
          "indices": 124,
          "material": 0,
          "mode": 4
        }
      ]
    },
    {
      "name": "Cube.007_CornerCafe_0",
      "primitives": [
        {
          "attributes": {
            "NORMAL": 126,
            "POSITION": 125,
            "TANGENT": 127,
            "TEXCOORD_0": 128
          },
          "indices": 129,
          "material": 0,
          "mode": 4
        }
      ]
    },
    {
      "name": "TextCafe_CornerCafe_0",
      "primitives": [
        {
          "attributes": {
            "NORMAL": 131,
            "POSITION": 130,
            "TANGENT": 132,
            "TEXCOORD_0": 133
          },
          "indices": 134,
          "material": 0,
          "mode": 4
        }
      ]
    },
    {
      "name": "table_CornerCafe_0",
      "primitives": [
        {
          "attributes": {
            "NORMAL": 136,
            "POSITION": 135,
            "TANGENT": 137,
            "TEXCOORD_0": 138
          },
          "indices": 139,
          "material": 0,
          "mode": 4
        }
      ]
    },
    {
      "name": "chair_CornerCafe_0",
      "primitives": [
        {
          "attributes": {
            "NORMAL": 141,
            "POSITION": 140,
            "TANGENT": 142,
            "TEXCOORD_0": 143
          },
          "indices": 144,
          "material": 0,
          "mode": 4
        }
      ]
    },
    {
      "name": "group_1_CornerCafe_0",
      "primitives": [
        {
          "attributes": {
            "NORMAL": 146,
            "POSITION": 145,
            "TANGENT": 147,
            "TEXCOORD_0": 148
          },
          "indices": 149,
          "material": 0,
          "mode": 4
        }
      ]
    }
  ],
  "nodes": [
    {
      "children": [
        1
      ],
      "matrix": [
        1.4148739576339722,
        0.0,
        0.0,
        0.0,
        0.0,
        3.1416512894155083e-16,
        -1.4148739576339722,
        0.0,
        0.0,
        1.4148739576339722,
        3.1416512894155083e-16,
        0.0,
        0.0,
        0.0,
        0.0,
        1.0
      ],
      "name": "Sketchfab_model"
    },
    {
      "children": [
        2
      ],
      "matrix": [
        0.009999999776482582,
        0.0,
        0.0,
        0.0,
        0.0,
        0.0,
        0.009999999776482582,
        0.0,
        0.0,
        -0.009999999776482582,
        0.0,
        0.0,
        0.0,
        0.0,
        0.0,
        1.0
      ],
      "name": "CornerCafe.fbx"
    },
    {
      "children": [
        3,
        5,
        9,
        13,
        17,
        19,
        23,
        27,
        31,
        33,
        37,
        39,
        41,
        43,
        45,
        47,
        49,
        51,
        55,
        57,
        59
      ],
      "name": "RootNode"
    },
    {
      "children": [
        4
      ],
      "matrix": [
        70.71067657322372,
        -1.1102230246251565e-14,
        -70.71067966408575,
        0.0,
        -70.71067966408482,
        -1.6292067983592062e-05,
        -70.71067657322278,
        0.0,
        -1.1520231985029383e-05,
        99.99999999999869,
        -1.1520231502082368e-05,
        0.0,
        -260.05902099609375,
        60.143245697021484,
        -134.8982391357422,
        1.0
      ],
      "name": "table.001"
    },
    {
      "mesh": 0,
      "name": "table.001_CornerCafe_0"
    },
    {
      "children": [
        6,
        7
      ],
      "matrix": [
        70.71067235853864,
        -5.551115123125783e-15,
        -70.7106838787704,
        0.0,
        -70.7106838787702,
        7.549789970973109e-06,
        -70.71067235853845,
        0.0,
        5.338508118901686e-06,
        99.99999999999972,
        5.3385072473766115e-06,
        0.0,
        -185.39532470703125,
        0.0,
        -59.43871307373047,
        1.0
      ],
      "name": "chair.001"
    },
    {
      "mesh": 1,
      "name": "chair.001_CornerCafe_0"
    },
    {
      "children": [
        8
      ],
      "matrix": [
        1.0,
        5.551115123125784e-17,
        -1.9852334701272667e-23,
        0.0,
        -5.551115123125784e-17,
        1.0,
        -1.3234889800848443e-23,
        0.0,
        1.9852334701272667e-23,
        1.3234889800848443e-23,
        1.0,
        0.0,
        2.980232238769531e-07,
        -2.220446049250313e-16,
        2.6469779601696886e-23,
        1.0
      ],
      "name": "group_1.001"
    },
    {
      "mesh": 2,
      "name": "group_1.001_CornerCafe_0"
    },
    {
      "children": [
        10,
        11
      ],
      "matrix": [
        70.71067235853864,
        -5.551115123125783e-15,
        -70.7106838787704,
        0.0,
        -70.7106838787702,
        7.549789970973109e-06,
        -70.71067235853845,
        0.0,
        5.338508118901686e-06,
        99.99999999999972,
        5.3385072473766115e-06,
        0.0,
        -292.63787841796875,
        0.0,
        -166.68124389648438,
        1.0
      ],
      "name": "chair.002"
    },
    {
      "mesh": 3,
      "name": "chair.002_CornerCafe_0"
    },
    {
      "children": [
        12
      ],
      "matrix": [
        1.0,
        5.551115123125784e-17,
        -1.9852334701272667e-23,
        0.0,
        -5.551115123125784e-17,
        1.0,
        -1.3234889800848443e-23,
        0.0,
        1.9852334701272667e-23,
        1.3234889800848443e-23,
        1.0,
        0.0,
        0.0,
        0.0,
        0.0,
        1.0
      ],
      "name": "group_1.002"
    },
    {
      "mesh": 4,
      "name": "group_1.002_CornerCafe_0"
    },
    {
      "children": [
        14,
        15
      ],
      "matrix": [
        -70.71064482277629,
        5.551115123125783e-15,
        70.71071141451753,
        0.0,
        70.7107114145162,
        1.9470718881642313e-05,
        70.71064482277495,
        0.0,
        -1.3767883833004646e-05,
        99.99999999999811,
        -1.3767870887804179e-05,
        0.0,
        -228.4043731689453,
        0.0,
        -102.44776916503906,
        1.0
      ],
      "name": "chair.003"
    },
    {
      "mesh": 5,
      "name": "chair.003_CornerCafe_0"
    },
    {
      "children": [
        16
      ],
      "matrix": [
        1.0,
        0.0,
        2.6469779601696886e-23,
        0.0,
        0.0,
        1.0,
        0.0,
        0.0,
        -2.6469779601696886e-23,
        0.0,
        1.0,
        0.0,
        5.960464477539063e-08,
        2.384185791015625e-07,
        5.293955920339377e-23,
        1.0
      ],
      "name": "group_1.003"
    },
    {
      "mesh": 6,
      "name": "group_1.003_CornerCafe_0"
    },
    {
      "children": [
        18
      ],
      "matrix": [
        -70.71069539900026,
        -5.551115123125783e-15,
        -70.71066083830506,
        0.0,
        -70.71066083830158,
        3.13916478589249e-05,
        70.71069539899675,
        0.0,
        2.2197241655863564e-05,
        99.9999999999951,
        -2.2197252524946975e-05,
        0.0,
        170.552978515625,
        60.143245697021484,
        -30.710102081298828,
        1.0
      ],
      "name": "table.002"
    },
    {
      "mesh": 7,
      "name": "table.002_CornerCafe_0"
    },
    {
      "children": [
        20,
        21
      ],
      "matrix": [
        -70.7107122577335,
        5.551115123125783e-15,
        -70.7106439795595,
        0.0,
        -70.71064397955817,
        1.9470718914949003e-05,
        70.71071225773217,
        0.0,
        1.3767870732372955e-05,
        99.9999999999981,
        -1.376788403284479e-05,
        0.0,
        246.0124969482422,
        1.4901161193847656e-06,
        -105.37378692626953,
        1.0
      ],
      "name": "chair.004"
    },
    {
      "mesh": 8,
      "name": "chair.004_CornerCafe_0"
    },
    {
      "children": [
        22
      ],
      "matrix": [
        1.0,
        1.1102230246251568e-16,
        1.3234889800848446e-23,
        0.0,
        -1.1102230246251568e-16,
        1.0,
        6.617444900424223e-23,
        0.0,
        -1.3234889800848438e-23,
        -6.617444900424223e-23,
        1.0,
        0.0,
        0.0,
        0.0,
        0.0,
        1.0
      ],
      "name": "group_1.004"
    },
    {
      "mesh": 9,
      "name": "group_1.004_CornerCafe_0"
    },
    {
      "children": [
        24,
        25
      ],
      "matrix": [
        -70.7107122577335,
        5.551115123125783e-15,
        -70.7106439795595,
        0.0,
        -70.71064397955817,
        1.9470718914949003e-05,
        70.71071225773217,
        0.0,
        1.3767870732372955e-05,
        99.9999999999981,
        -1.376788403284479e-05,
        0.0,
        138.7699737548828,
        1.4901161193847656e-06,
        1.8687608242034912,
        1.0
      ],
      "name": "chair.005"
    },
    {
      "mesh": 10,
      "name": "chair.005_CornerCafe_0"
    },
    {
      "children": [
        26
      ],
      "matrix": [
        1.0,
        1.1102230246251568e-16,
        1.3234889800848446e-23,
        0.0,
        -1.1102230246251568e-16,
        1.0,
        6.617444900424223e-23,
        0.0,
        -1.3234889800848438e-23,
        -6.617444900424223e-23,
        1.0,
        0.0,
        0.0,
        0.0,
        0.0,
        1.0
      ],
      "name": "group_1.005"
    },
    {
      "mesh": 11,
      "name": "group_1.005_CornerCafe_0"
    },
    {
      "children": [
        28,
        29
      ],
      "matrix": [
        70.71073254422532,
        0.0,
        70.71063448264341,
        0.0,
        70.71063448264248,
        -1.6292069182169283e-05,
        -70.71073254422436,
        0.0,
        1.1520223730521195e-05,
        99.99999999999866,
        -1.152023969552829e-05,
        0.0,
        203.00344848632813,
        1.4901161193847656e-06,
        -62.36474609375,
        1.0
      ],
      "name": "chair.006"
    },
    {
      "mesh": 12,
      "name": "chair.006_CornerCafe_0"
    },
    {
      "children": [
        30
      ],
      "matrix": [
        0.9999999999999996,
        -2.980232244320647e-08,
        8.758115402030107e-47,
        0.0,
        2.980232244320647e-08,
        0.9999999999999996,
        3.970466940254533e-23,
        0.0,
        -1.18329136003557e-30,
        -3.9704669402545305e-23,
        1.0,
        0.0,
        0.0,
        0.0,
        0.0,
        1.0
      ],
      "name": "group_1.006"
    },
    {
      "mesh": 13,
      "name": "group_1.006_CornerCafe_0"
    },
    {
      "children": [
        32
      ],
      "matrix": [
        -70.71069539900026,
        -5.551115123125783e-15,
        -70.71066083830506,
        0.0,
        -70.71066083830158,
        3.13916478589249e-05,
        70.71069539899675,
        0.0,
        2.2197241655863564e-05,
        99.9999999999951,
        -2.2197252524946975e-05,
        0.0,
        277.32733154296875,
        60.143245697021484,
        -137.4844512939453,
        1.0
      ],
      "name": "table.003"
    },
    {
      "mesh": 14,
      "name": "table.003_CornerCafe_0"
    },
    {
      "children": [
        34,
        35
      ],
      "matrix": [
        70.71068078790854,
        -5.551115123125783e-15,
        70.71067544940087,
        0.0,
        70.7106754494008,
        -4.371138984105016e-06,
        -70.71068078790846,
        0.0,
        3.090861905308273e-06,
        99.9999999999999,
        -3.090862121801763e-06,
        0.0,
        307.7513122558594,
        1.4901161193847656e-06,
        -167.9752960205078,
        1.0
      ],
      "name": "chair.007"
    },
    {
      "mesh": 15,
      "name": "chair.007_CornerCafe_0"
    },
    {
      "children": [
        36
      ],
      "matrix": [
        1.0,
        -5.551115123125783e-17,
        3.308722450212111e-24,
        0.0,
        5.551115123125783e-17,
        1.0,
        3.308722450212111e-24,
        0.0,
        -3.308722450212111e-24,
        -3.308722450212111e-24,
        1.0,
        0.0,
        0.0,
        0.0,
        0.0,
        1.0
      ],
      "name": "group_1.007"
    },
    {
      "mesh": 16,
      "name": "group_1.007_CornerCafe_0"
    },
    {
      "children": [
        38
      ],
      "matrix": [
        100.0,
        0.0,
        0.0,
        0.0,
        0.0,
        -1.629206793918314e-05,
        -99.99999999999868,
        0.0,
        0.0,
        99.99999999999868,
        -1.629206793918314e-05,
        0.0,
        0.0,
        0.0,
        -84.66090393066406,
        1.0
      ],
      "name": "Cube.004"
    },
    {
      "mesh": 17,
      "name": "Cube.004_CornerCafe_0"
    },
    {
      "children": [
        40
      ],
      "matrix": [
        100.0,
        0.0,
        0.0,
        0.0,
        0.0,
        -1.629206793918314e-05,
        -99.99999999999868,
        0.0,
        0.0,
        99.99999999999868,
        -1.629206793918314e-05,
        0.0,
        0.0,
        0.0,
        -84.66090393066406,
        1.0
      ],
      "name": "Cube"
    },
    {
      "mesh": 18,
      "name": "Cube_CornerCafe_0"
    },
    {
      "children": [
        42
      ],
      "matrix": [
        100.0,
        0.0,
        0.0,
        0.0,
        0.0,
        -1.629206793918314e-05,
        -99.99999999999868,
        0.0,
        0.0,
        99.99999999999868,
        -1.629206793918314e-05,
        0.0,
        0.0,
        0.0,
        0.0,
        1.0
      ],
      "name": "Plane"
    },
    {
      "mesh": 19,
      "name": "Plane_CornerCafe_0"
    },
    {
      "children": [
        44
      ],
      "matrix": [
        100.0,
        0.0,
        0.0,
        0.0,
        0.0,
        -1.629206793918314e-05,
        -99.99999999999868,
        0.0,
        0.0,
        99.99999999999868,
        -1.629206793918314e-05,
        0.0,
        0.0,
        71.46719360351563,
        -140.405517578125,
        1.0
      ],
      "name": "Cube.001"
    },
    {
      "mesh": 20,
      "name": "Cube.001_CornerCafe_0"
    },
    {
      "children": [
        46
      ],
      "matrix": [
        100.0,
        0.0,
        0.0,
        0.0,
        0.0,
        -1.629206793918314e-05,
        -99.99999999999868,
        0.0,
        0.0,
        99.99999999999868,
        -1.629206793918314e-05,
        0.0,
        0.0,
        71.46719360351563,
        -141.7528076171875,
        1.0
      ],
      "name": "Cube.003"
    },
    {
      "mesh": 21,
      "name": "Cube.003_CornerCafe_0"
    },
    {
      "children": [
        48
      ],
      "matrix": [
        5.607490539550781,
        0.0,
        0.0,
        0.0,
        0.0,
        -9.135761683868806e-07,
        -5.6074905395507075,
        0.0,
        0.0,
        5.6074905395507075,
        -9.135761683868806e-07,
        0.0,
        0.0,
        215.9465789794922,
        -100.51615142822266,
        1.0
      ],
      "name": "Cylinder"
    },
    {
      "mesh": 22,
      "name": "Cylinder_CornerCafe_0"
    },
    {
      "children": [
        50
      ],
      "matrix": [
        100.0,
        0.0,
        0.0,
        0.0,
        0.0,
        -1.629206793918314e-05,
        -99.99999999999868,
        0.0,
        0.0,
        99.99999999999868,
        -1.629206793918314e-05,
        0.0,
        0.0,
        14.362610816955566,
        -112.65462493896484,
        1.0
      ],
      "name": "Cube.005"
    },
    {
      "mesh": 23,
      "name": "Cube.005_CornerCafe_0"
    },
    {
      "children": [
        52,
        53
      ],
      "matrix": [
        93.96925423731251,
        -1.927425211154896e-07,
        -34.20201356944466,
        0.0,
        -33.68240997674798,
        -17.364830307190026,
        -92.54165508872622,
        0.0,
        -5.9391218927280915,
        98.48077308999203,
        -16.317602849095913,
        0.0,
        80.73296356201172,
        0.18384374678134918,
        -17.31305503845215,
        1.0
      ],
      "name": "Cube.006"
    },
    {
      "mesh": 24,
      "name": "Cube.006_CornerCafe_0"
    },
    {
      "children": [
        54
      ],
      "matrix": [
        -0.9999999999999225,
        -3.894143773112114e-07,
        -5.487275345911204e-08,
        0.0,
        3.846974021863147e-07,
        -0.9396926140659032,
        -0.34202016178851363,
        0.0,
        8.162404719176694e-08,
        -0.3420201617885083,
        0.9396926140659806,
        0.0,
        -5.960464477539063e-08,
        0.25310131907463074,
        0.044628582894802094,
        1.0
      ],
      "name": "Cube.007"
    },
    {
      "mesh": 25,
      "name": "Cube.007_CornerCafe_0"
    },
    {
      "children": [
        56
      ],
      "matrix": [
        217.99041748046875,
        4.4173195909619356e-14,
        6.819344459720552e-14,
        0.0,
        -6.81934547902488e-14,
        198.93837838011672,
        89.12551276642783,
        0.0,
        -4.417320109590806e-14,
        -89.12551276642783,
        198.93837838011672,
        0.0,
        -1.7738108701190409e-16,
        242.69235229492188,
        -59.17411422729492,
        1.0
      ],
      "name": "TextCafe"
    },
    {
      "mesh": 26,
      "name": "TextCafe_CornerCafe_0"
    },
    {
      "children": [
        58
      ],
      "matrix": [
        70.71067657322372,
        -1.1102230246251565e-14,
        -70.71067966408575,
        0.0,
        -70.71067966408482,
        -1.6292067983592062e-05,
        -70.71067657322278,
        0.0,
        -1.1520231985029383e-05,
        99.99999999999869,
        -1.1520231502082368e-05,
        0.0,
        -153.28466796875,
        60.143245697021484,
        -28.123891830444336,
        1.0
      ],
      "name": "table"
    },
    {
      "mesh": 27,
      "name": "table_CornerCafe_0"
    },
    {
      "children": [
        60,
        61
      ],
      "matrix": [
        -70.71069539900026,
        5.551115123125783e-15,
        70.71066083830506,
        0.0,
        70.71066083830158,
        3.13916478589249e-05,
        70.71069539899675,
        0.0,
        -2.2197241655863564e-05,
        99.9999999999951,
        -2.2197252524946975e-05,
        0.0,
        -122.79383850097656,
        0.0,
        2.300098419189453,
        1.0
      ],
      "name": "chair"
    },
    {
      "mesh": 28,
      "name": "chair_CornerCafe_0"
    },
    {
      "children": [
        62
      ],
      "matrix": [
        1.0,
        0.0,
        7.940933880509065e-23,
        0.0,
        0.0,
        1.0,
        0.0,
        0.0,
        -7.940933880509065e-23,
        0.0,
        1.0,
        0.0,
        -5.960464477539063e-08,
        5.960464477539063e-08,
        -5.293955920339377e-23,
        1.0
      ],
      "name": "group_1"
    },
    {
      "mesh": 29,
      "name": "group_1_CornerCafe_0"
    }
  ],
  "samplers": [
    {
      "magFilter": 9729,
      "minFilter": 9987,
      "wrapS": 10497,
      "wrapT": 10497
    }
  ],
  "scene": 0,
  "scenes": [
    {
      "name": "Sketchfab_Scene",
      "nodes": [
        0
      ]
    }
  ],
  "textures": [
    {
      "sampler": 0,
      "source": 0
    },
    {
      "sampler": 0,
      "source": 1
    },
    {
      "sampler": 0,
      "source": 2
    },
    {
      "sampler": 0,
      "source": 3
    }
  ]
}
